<?xml version="1.0" encoding="UTF-8"?>
<svg id="Layer_1" xmlns="http://www.w3.org/2000/svg" viewBox="0 0 2655.5 539.232">
  <defs>
    <style>
      .cls-1 {
        fill: #152417;
      }
    </style>
  </defs>
  <path class="cls-1" d="M0,508.14V0h226.366c43.517,0,80.587,7.748,111.221,23.24,30.631,15.492,54.023,36.939,70.18,64.334,16.153,27.398,24.233,58.951,24.233,94.662s-8.221,67.222-24.654,94.53c-16.436,27.308-40.204,48.577-71.3,63.807-31.097,15.23-76.768,25.867-120.69,22.437-35.132-2.744-136.135-30.184-136.135-30.184v-85.064s104.342,25.004,136.135,24.696c23.602-.229,30.945-3.963,46.17-11.578,15.219-7.615,26.615-18.206,34.178-31.773,7.563-13.564,11.345-29.188,11.345-46.871,0-17.857-3.782-33.482-11.345-46.871-7.563-13.392-19.007-23.806-34.319-31.249-15.316-7.438-34.74-11.16-58.274-11.16h-81.804v444.819H31.618c-17.462,0-31.618-13.268-31.618-29.635Z"/>
  <path class="cls-1" d="M587.776,537.545c-26.225,0-49.599-4.332-70.112-12.986-20.516-8.653-36.706-21.506-48.569-38.564-11.866-17.052-17.793-38.356-17.793-63.9,0-21.512,4.188-39.575,12.578-54.195,8.383-14.615,19.802-26.376,34.25-35.289,14.451-8.902,30.908-15.625,49.372-20.166,18.465-4.54,37.865-7.729,58.203-9.577,23.904-2.351,43.173-4.575,57.801-6.678,14.626-2.103,25.241-5.251,31.843-9.45,6.599-4.205,9.904-10.421,9.904-18.658v-1.513c0-15.961-5.311-28.311-15.923-37.051-10.615-8.734-25.649-13.113-45.092-13.113-20.516,0-36.841,4.252-48.971,12.731-8.153,5.706-14.453,12.378-18.898,20.014-4.174,7.171-12.056,11.347-20.33,10.714l-62.602-4.788c-15.118-1.156-24.335-17.106-17.865-30.818,5.58-11.826,12.832-22.636,21.757-32.426,15.696-17.226,35.991-30.5,60.877-39.823,24.889-9.329,53.742-13.991,86.569-13.991,22.834,0,44.73,2.519,65.694,7.561,20.961,5.043,39.606,12.853,55.928,23.441,16.325,10.588,29.212,24.163,38.668,40.707,9.453,16.555,14.184,36.346,14.184,59.359v261.145h-86.509c-11.929,0-21.6-9.671-21.6-21.6v-32.087h-3.213c-6.602,12.096-15.432,22.725-26.492,31.886-11.063,9.162-24.352,16.301-39.87,21.419-15.521,5.13-33.45,7.694-53.788,7.694ZM620.422,463.432c16.766,0,31.576-3.148,44.42-9.45,12.844-6.302,22.923-14.828,30.239-25.584,7.313-10.75,10.971-22.939,10.971-36.548v-41.088c-3.569,2.189-8.429,4.159-14.583,5.921-6.154,1.768-13.071,3.362-20.74,4.795-7.672,1.427-15.343,2.686-23.012,3.778-7.672,1.098-14.629,2.056-20.872,2.9-13.381,1.848-25.066,4.789-35.056,8.821-9.993,4.038-17.753,9.456-23.282,16.261-5.531,6.805-8.294,15.25-8.294,25.33,0,14.62,5.66,25.757,16.993,33.4,11.327,7.648,25.729,11.466,43.215,11.466Z"/>
  <path class="cls-1" d="M1004.813,315.68v220.665c0,1.594-1.294,2.887-2.89,2.887h-89.509c-11.929,0-21.6-9.658-21.6-21.573V155.43c0-1.594,1.294-2.887,2.89-2.887h102.865c1.596,0,2.89,1.292,2.89,2.887v62.453c0,1.594,1.294,2.887,2.89,2.887h0c1.167,0,2.209-.706,2.663-1.779,9.174-21.651,24.183-38.885,45.024-51.713,21.405-13.177,47.364-19.765,77.87-19.765,28.54,0,53.429,5.873,74.66,17.619,21.228,11.752,37.733,28.494,49.507,50.227,11.774,21.738,17.661,47.619,17.661,77.665v243.321c0,1.594-1.294,2.887-2.89,2.887h-89.509c-11.929,0-21.6-9.658-21.6-21.573v-205.504c.178-23.665-6.246-42.167-19.265-55.512-13.025-13.338-30.954-20.013-53.788-20.013-15.346,0-28.859,3.11-40.542,9.317-11.685,6.208-20.786,15.231-27.296,27.058-6.513,11.838-9.858,26.06-10.033,42.675Z"/>
  <path class="cls-1" d="M1499.836,538.534c-31.223,0-59.454-7.602-84.695-22.811-25.247-15.204-45.224-37.64-59.942-67.302-14.718-29.657-22.077-66.078-22.077-109.274,0-44.364,7.58-81.287,22.745-110.782,15.163-29.489,35.366-51.584,60.61-66.291,25.244-14.701,52.938-22.055,83.089-22.055,23.015,0,42.237,3.651,57.67,10.964,15.429,7.313,27.918,16.382,37.463,27.219,9.178,10.429,16.254,20.665,21.228,30.694.362.731,1.098,1.193,1.914,1.193h0c1.185,0,2.145-.96,2.145-2.145V18.141c0-1.185.96-2.145,2.145-2.145h89.984c11.929,0,21.6,9.671,21.6,21.6v492.49c0,1.185-.961,2.146-2.146,2.146h-88.644c-11.929,0-21.6-9.671-21.6-21.6v-38.26c0-1.185-.96-2.145-2.145-2.145h-1.361c-.805,0-1.533.451-1.901,1.167-5.312,10.358-12.653,20.598-22.024,30.719-9.726,10.502-22.304,19.201-37.73,26.087-15.435,6.886-34.213,10.334-56.33,10.334ZM1535.962,453.082c18.37,0,33.937-4.748,46.696-14.245,12.752-9.485,22.564-22.806,29.436-39.95,6.865-17.139,10.303-37.218,10.303-60.238s-3.391-43.024-10.171-59.995c-6.783-16.971-16.591-30.078-29.436-39.327-12.844-9.237-28.458-13.864-46.827-13.864-18.735,0-34.523,4.795-47.367,14.372-12.844,9.577-22.571,22.852-29.166,39.823-6.605,16.977-9.904,36.635-9.904,58.99,0,22.517,3.345,42.388,10.036,59.614,6.691,17.226,16.41,30.662,29.169,40.326,12.752,9.664,28.498,14.493,47.232,14.493Z"/>
  <path class="cls-1" d="M1863.366,130.375c-16.95,0-31.444-5.996-43.485-17.987-12.041-12.004-18.063-26.469-18.063-43.422s6.062-31.457,18.198-43.553c12.127-12.089,26.578-18.131,43.35-18.131,16.947,0,31.441,5.996,43.485,17.987,12.041,11.998,18.06,26.469,18.06,43.415s-6.019,31.463-18.06,43.559c-12.044,12.096-26.538,18.131-43.485,18.131ZM1806.098,516.379V148.684c0-1.199.961-2.171,2.146-2.171h90.254c11.929,0,21.6,9.784,21.6,21.853v367.695c0,1.199-.961,2.171-2.146,2.171h-90.254c-11.929,0-21.6-9.784-21.6-21.853Z"/>
  <path class="cls-1" d="M2238.698,121.632v69.65c0,7.737-5.886,14.008-13.148,14.008h-232.234c-1.185,0-2.146-1.024-2.146-2.286v-69.65c0-7.737,5.886-14.008,13.148-14.008h232.234c1.185,0,2.146,1.024,2.146,2.286ZM2049.51,20.513h98.703c7.261,0,13.148,6.272,13.148,14.008v370.59c0,10.562,1.607,18.76,4.817,24.57,3.213,5.822,7.715,9.897,13.516,12.223,5.795,2.326,12.529,3.49,20.203,3.49,5.351,0,10.704-.486,16.055-1.477h0c6.901-1.262,13.52,3.46,15.053,10.74l12.408,58.925c1.574,7.475-2.775,14.903-9.767,16.691-3.459.884-7.306,1.82-11.541,2.808-10.349,2.419-22.926,3.896-37.73,4.431-27.476,1.077-51.513-2.597-72.118-11.005-20.605-8.42-36.62-21.492-48.036-39.218-11.419-17.726-17.036-40.104-16.858-67.136V22.799c0-1.263.961-2.286,2.146-2.286Z"/>
  <path class="cls-1" d="M2424.027,537.545c-26.225,0-49.599-4.332-70.112-12.986-20.516-8.653-36.706-21.506-48.569-38.564-11.866-17.052-17.793-38.356-17.793-63.9,0-21.512,4.188-39.575,12.578-54.195,8.383-14.615,19.802-26.376,34.25-35.289,14.451-8.902,30.908-15.625,49.372-20.166,18.465-4.54,37.865-7.729,58.203-9.577,23.904-2.351,43.173-4.575,57.801-6.678,14.626-2.103,25.241-5.251,31.843-9.45,6.599-4.205,9.904-10.421,9.904-18.658v-1.513c0-15.961-5.311-28.311-15.923-37.051-10.615-8.734-25.649-13.113-45.092-13.113-20.516,0-36.841,4.252-48.971,12.731-8.153,5.706-14.453,12.378-18.898,20.014-4.174,7.171-12.056,11.347-20.33,10.714l-62.602-4.788c-15.118-1.156-24.335-17.106-17.865-30.818,5.58-11.826,12.832-22.636,21.757-32.426,15.696-17.226,35.991-30.5,60.877-39.823,24.889-9.329,53.742-13.991,86.569-13.991,22.834,0,44.73,2.519,65.694,7.561,20.961,5.043,39.606,12.853,55.928,23.441,16.325,10.588,29.212,24.163,38.668,40.707,9.453,16.555,14.184,36.346,14.184,59.359v258.999c0,1.185-.961,2.146-2.146,2.146h-84.364c-11.929,0-21.6-9.671-21.6-21.6v-32.087h-3.213c-6.602,12.096-15.432,22.725-26.492,31.886-11.063,9.162-24.352,16.301-39.87,21.419-15.521,5.13-33.45,7.694-53.788,7.694ZM2456.673,463.432c16.766,0,31.576-3.148,44.42-9.45,12.844-6.302,22.923-14.828,30.239-25.584,7.313-10.75,10.971-22.939,10.971-36.548v-41.088c-3.569,2.189-8.429,4.159-14.583,5.921-6.154,1.768-13.071,3.362-20.74,4.795-7.672,1.427-15.343,2.686-23.012,3.778-7.672,1.098-14.629,2.056-20.872,2.9-13.381,1.848-25.066,4.789-35.056,8.821-9.993,4.038-17.753,9.456-23.282,16.261-5.531,6.805-8.294,15.25-8.294,25.33,0,14.62,5.66,25.757,16.993,33.4,11.327,7.648,25.729,11.466,43.215,11.466Z"/>
</svg>